<svg xmlns="http://www.w3.org/2000/svg" xmlns:xlink="http://www.w3.org/1999/xlink" width="160" zoomAndPan="magnify" viewBox="0 0 120 44.999999" height="60" preserveAspectRatio="xMidYMid meet" version="1.0"><defs><g/><clipPath id="79e336224d"><path d="M 2.207031 1 L 45.707031 1 L 45.707031 44 L 2.207031 44 Z M 2.207031 1 " clip-rule="nonzero"/></clipPath><clipPath id="8a415a6541"><path d="M 10 9 L 35 9 L 35 44.695312 L 10 44.695312 Z M 10 9 " clip-rule="nonzero"/></clipPath></defs><rect x="-12" width="144" fill="#ffffff" y="-4.5" height="53.999999" fill-opacity="1"/><rect x="-12" width="144" fill="#ffffff" y="-4.5" height="53.999999" fill-opacity="1"/><g clip-path="url(#79e336224d)"><path fill="#3b3f3f" d="M 45.5 21.441406 C 45.0625 16.414062 42.878906 11.527344 39.300781 7.945312 C 39.234375 7.878906 39.15625 7.800781 39.085938 7.730469 C 33.722656 2.535156 25.515625 0.457031 18.3125 2.472656 C 11.109375 4.492188 5.1875 10.53125 3.3125 17.765625 C 2.207031 22.023438 2.53125 26.613281 4.070312 30.71875 C 5.652344 34.960938 8.523438 38.558594 12.304688 41.050781 C 14.082031 42.226562 16.0625 43.113281 18.125 43.664062 C 18.210938 41.6875 18.21875 39.667969 17.566406 37.804688 C 16.765625 35.5625 15.125 33.785156 13.730469 31.902344 C 12.296875 29.96875 11.1875 27.789062 10.542969 25.460938 C 9.890625 23.105469 9.734375 20.597656 10.257812 18.203125 C 10.964844 15 12.828125 12.015625 15.640625 10.265625 C 18.070312 8.746094 21.011719 8.160156 23.847656 8.210938 C 27.304688 8.28125 30.835938 9.335938 33.378906 11.671875 C 35.925781 14.011719 37.300781 17.746094 36.3125 21.0625 C 36.121094 21.691406 35.855469 22.351562 36.027344 22.988281 C 36.140625 23.390625 36.414062 23.726562 36.6875 24.050781 C 37.480469 24.988281 38.269531 25.925781 39.0625 26.859375 C 39.3125 27.152344 39.578125 27.496094 39.515625 27.882812 C 39.421875 28.535156 38.535156 28.699219 38.105469 29.207031 C 37.375 30.074219 38.269531 31.421875 37.953125 32.511719 C 37.859375 32.832031 37.667969 33.113281 37.566406 33.421875 C 37.195312 34.523438 37.953125 35.855469 37.351562 36.84375 C 36.886719 37.589844 35.863281 37.746094 34.988281 37.648438 C 34.109375 37.546875 33.226562 37.273438 32.367188 37.46875 C 31.164062 37.746094 30.320312 38.894531 30.046875 40.097656 C 29.769531 41.300781 29.949219 42.554688 30.140625 43.773438 C 37.316406 41.679688 43.1875 35.578125 44.984375 28.320312 C 45.542969 26.078125 45.707031 23.75 45.5 21.441406 Z M 45.5 21.441406 " fill-opacity="1" fill-rule="nonzero"/></g><g clip-path="url(#8a415a6541)"><path fill="#3b3f3f" d="M 30.691406 22.050781 C 30.820312 22.453125 31.1875 22.746094 31.625 22.746094 C 32.167969 22.746094 32.613281 22.308594 32.613281 21.757812 C 32.613281 21.527344 32.527344 21.320312 32.398438 21.148438 L 33.328125 18.878906 C 33.886719 18.71875 34.300781 18.210938 34.300781 17.601562 C 34.300781 16.863281 33.699219 16.269531 32.96875 16.269531 C 32.914062 16.269531 32.871094 16.269531 32.828125 16.277344 L 30.070312 13.28125 C 30.113281 13.144531 30.140625 13.003906 30.140625 12.851562 C 30.140625 12.113281 29.539062 11.519531 28.808594 11.519531 C 28.402344 11.519531 28.035156 11.699219 27.792969 11.992188 L 23.425781 10.761719 C 23.289062 10.179688 22.757812 9.742188 22.128906 9.742188 C 21.40625 9.742188 20.824219 10.308594 20.796875 11.03125 L 16.136719 12.953125 C 15.957031 12.757812 15.699219 12.628906 15.40625 12.628906 C 14.867188 12.628906 14.417969 13.066406 14.417969 13.613281 C 14.417969 13.882812 14.523438 14.121094 14.695312 14.300781 L 12.914062 17.238281 C 12.726562 17.136719 12.503906 17.078125 12.269531 17.078125 C 11.53125 17.078125 10.9375 17.679688 10.9375 18.410156 C 10.9375 19.148438 11.539062 19.738281 12.269531 19.738281 C 12.375 19.738281 12.46875 19.730469 12.5625 19.707031 L 14.136719 23.277344 C 13.835938 23.519531 13.636719 23.898438 13.636719 24.316406 C 13.636719 25.058594 14.238281 25.648438 14.96875 25.648438 C 15.0625 25.648438 15.160156 25.640625 15.246094 25.625 L 16.859375 28.792969 C 16.621094 29.035156 16.472656 29.371094 16.472656 29.738281 C 16.472656 30.476562 17.074219 31.070312 17.804688 31.070312 C 17.917969 31.070312 18.019531 31.054688 18.113281 31.035156 L 20.179688 34.308594 C 19.824219 34.550781 19.601562 34.953125 19.601562 35.40625 C 19.601562 36.148438 20.203125 36.738281 20.933594 36.738281 C 20.960938 36.738281 20.984375 36.738281 21.011719 36.738281 L 21.5 40.347656 L 21.414062 44.46875 C 21.414062 44.582031 21.5 44.675781 21.621094 44.683594 C 21.734375 44.683594 21.828125 44.597656 21.835938 44.480469 L 21.921875 40.320312 L 21.425781 36.644531 C 21.921875 36.449219 22.273438 35.964844 22.273438 35.40625 C 22.273438 34.667969 21.671875 34.078125 20.941406 34.078125 C 20.8125 34.078125 20.683594 34.09375 20.566406 34.128906 L 18.511719 30.871094 C 18.878906 30.648438 19.128906 30.246094 19.144531 29.78125 L 21.027344 29.5 C 21.210938 29.738281 21.492188 29.894531 21.8125 29.894531 C 22.351562 29.894531 22.800781 29.457031 22.800781 28.90625 C 22.800781 28.46875 22.515625 28.105469 22.121094 27.96875 L 21.769531 25.117188 C 22.457031 25.058594 22.988281 24.488281 22.988281 23.785156 C 22.988281 23.691406 22.980469 23.605469 22.960938 23.519531 L 24.984375 22.09375 C 25.171875 22.1875 25.378906 22.25 25.601562 22.25 C 26.003906 22.25 26.367188 22.066406 26.605469 21.785156 Z M 13.601562 18.21875 C 13.578125 18.023438 13.515625 17.839844 13.414062 17.679688 L 21.113281 11.921875 C 21.210938 12.035156 21.3125 12.121094 21.441406 12.199219 L 19.351562 16.671875 C 18.828125 16.714844 18.398438 17.058594 18.21875 17.53125 Z M 21.820312 12.359375 C 21.921875 12.386719 22.027344 12.394531 22.128906 12.394531 C 22.4375 12.394531 22.722656 12.292969 22.953125 12.113281 L 25.59375 15.453125 C 25.421875 15.675781 25.316406 15.960938 25.316406 16.269531 C 25.316406 16.390625 25.335938 16.511719 25.371094 16.628906 L 20.746094 17.617188 C 20.609375 17.171875 20.246094 16.835938 19.792969 16.714844 Z M 20.796875 18.023438 L 25.542969 17.007812 C 25.703125 17.257812 25.953125 17.4375 26.238281 17.53125 L 25.773438 19.578125 C 25.722656 19.566406 25.671875 19.566406 25.609375 19.566406 C 25.058594 19.566406 24.585938 19.894531 24.390625 20.367188 L 20.703125 18.484375 C 20.761719 18.347656 20.796875 18.183594 20.796875 18.023438 Z M 26.933594 20.71875 L 31.945312 18.460938 C 32.167969 18.726562 32.496094 18.90625 32.863281 18.933594 L 32.066406 20.882812 C 31.9375 20.8125 31.789062 20.777344 31.625 20.777344 C 31.128906 20.777344 30.714844 21.15625 30.65625 21.636719 L 26.855469 21.378906 C 26.90625 21.234375 26.941406 21.070312 26.941406 20.90625 C 26.949219 20.839844 26.941406 20.777344 26.933594 20.71875 Z M 32.382812 16.40625 C 31.9375 16.621094 31.636719 17.078125 31.636719 17.601562 C 31.636719 17.78125 31.667969 17.945312 31.730469 18.097656 L 26.8125 20.316406 C 26.675781 20.039062 26.453125 19.816406 26.175781 19.6875 L 26.648438 17.59375 C 27.390625 17.59375 27.980469 16.992188 27.980469 16.261719 C 27.980469 15.941406 27.871094 15.652344 27.691406 15.425781 L 28.480469 14.140625 C 28.582031 14.164062 28.695312 14.183594 28.808594 14.183594 C 29.238281 14.183594 29.617188 13.976562 29.863281 13.667969 Z M 28.09375 13.976562 L 27.371094 15.144531 C 27.164062 15.007812 26.917969 14.929688 26.648438 14.929688 C 26.367188 14.929688 26.109375 15.015625 25.894531 15.160156 L 23.238281 11.792969 C 23.359375 11.613281 23.433594 11.40625 23.453125 11.183594 L 27.570312 12.34375 C 27.507812 12.5 27.476562 12.660156 27.476562 12.84375 C 27.476562 13.324219 27.722656 13.734375 28.09375 13.976562 Z M 20.847656 11.441406 C 20.867188 11.484375 20.875 11.527344 20.890625 11.570312 L 13.457031 17.128906 L 15.046875 14.507812 C 15.160156 14.550781 15.277344 14.578125 15.40625 14.578125 C 15.949219 14.578125 16.394531 14.140625 16.394531 13.589844 C 16.394531 13.484375 16.378906 13.382812 16.34375 13.289062 Z M 12.957031 19.535156 C 13.277344 19.34375 13.515625 19.027344 13.585938 18.648438 L 18.132812 17.96875 C 18.132812 17.980469 18.132812 17.996094 18.132812 18.003906 C 18.132812 18.3125 18.242188 18.605469 18.425781 18.828125 L 15.476562 23.054688 C 15.320312 22.996094 15.160156 22.960938 14.988281 22.960938 C 14.824219 22.960938 14.660156 22.996094 14.515625 23.046875 Z M 19.09375 29.351562 C 18.929688 28.792969 18.425781 28.382812 17.8125 28.382812 C 17.597656 28.382812 17.394531 28.433594 17.210938 28.527344 L 15.648438 25.453125 C 16.050781 25.21875 16.320312 24.789062 16.320312 24.292969 C 16.320312 23.878906 16.128906 23.511719 15.835938 23.261719 L 18.734375 19.105469 C 18.863281 19.191406 19.007812 19.25 19.164062 19.292969 L 20.960938 22.644531 C 20.589844 22.882812 20.339844 23.296875 20.339844 23.769531 C 20.339844 24.394531 20.78125 24.929688 21.363281 25.066406 L 21.707031 27.898438 C 21.21875 27.960938 20.832031 28.371094 20.832031 28.878906 C 20.832031 28.949219 20.839844 29.015625 20.855469 29.085938 Z M 21.664062 22.4375 C 21.542969 22.4375 21.433594 22.453125 21.328125 22.480469 L 19.636719 19.320312 C 19.980469 19.277344 20.28125 19.09375 20.496094 18.847656 L 24.285156 20.777344 C 24.285156 20.820312 24.277344 20.855469 24.277344 20.898438 C 24.277344 21.25 24.414062 21.578125 24.648438 21.820312 L 22.824219 23.105469 C 22.59375 22.710938 22.15625 22.4375 21.664062 22.4375 Z M 21.664062 22.4375 " fill-opacity="1" fill-rule="nonzero"/></g><g fill="#3b3f3f" fill-opacity="1"><g transform="translate(54.439004, 23.928272)"><g><path d="M 7.796875 -2.453125 L 3.65625 -2.453125 L 2.640625 0 L 0.203125 0 L 5.84375 -13 L 5.984375 -13 L 11.625 0 L 8.765625 0 Z M 6.984375 -4.515625 L 5.78125 -7.5625 L 4.515625 -4.515625 Z M 6.984375 -4.515625 "/></g></g></g><g fill="#3b3f3f" fill-opacity="1"><g transform="translate(70.430515, 23.928272)"><g><path d="M 4.046875 -7.421875 L 4.421875 -7.90625 L 8.5 -12.515625 L 11.703125 -12.515625 L 6.53125 -6.90625 L 11.71875 0 L 8.578125 0 L 4.71875 -5.34375 L 4.109375 -4.71875 L 4.109375 0 L 1.609375 0 L 1.609375 -12.515625 L 4.109375 -12.515625 L 4.109375 -8.0625 Z M 4.046875 -7.421875 "/></g></g></g><g fill="#3b3f3f" fill-opacity="1"><g transform="translate(86.557959, 23.928272)"><g><path d="M 4.078125 -12.515625 L 4.078125 0 L 1.609375 0 L 1.609375 -12.515625 Z M 4.078125 -12.515625 "/></g></g></g><g fill="#3b3f3f" fill-opacity="1"><g transform="translate(96.415301, 23.928272)"><g><path d="M 4.078125 -12.515625 L 4.078125 -2.375 L 9.96875 -2.375 L 9.96875 0 L 1.609375 0 L 1.609375 -12.515625 Z M 4.078125 -12.515625 "/></g></g></g><g fill="#3b3f3f" fill-opacity="1"><g transform="translate(111.47224, 23.928272)"><g><path d="M 4.078125 -12.515625 L 4.078125 0 L 1.609375 0 L 1.609375 -12.515625 Z M 4.078125 -12.515625 "/></g></g></g><g fill="#3b3f3f" fill-opacity="1"><g transform="translate(53.942718, 32.228285)"><g><path d="M 3.3125 -1.203125 L 1.46875 -1.203125 L 0.96875 0 L 0.171875 0 L 2.421875 -5.3125 L 2.46875 -5.3125 L 4.71875 0 L 3.78125 0 Z M 3.046875 -1.890625 L 2.40625 -3.5 L 1.75 -1.890625 Z M 3.046875 -1.890625 "/></g></g></g><g fill="#3b3f3f" fill-opacity="1"><g transform="translate(61.635761, 32.228285)"><g><path d="M 5.203125 -5.09375 L 5.203125 0.1875 L 5.1875 0.1875 L 1.5 -3.375 L 1.53125 0 L 0.703125 0 L 0.703125 -5.265625 L 0.734375 -5.265625 L 4.40625 -1.671875 L 4.390625 -5.09375 Z M 5.203125 -5.09375 "/></g></g></g><g fill="#3b3f3f" fill-opacity="1"><g transform="translate(70.343807, 32.228285)"><g><path d="M 3.3125 -1.203125 L 1.46875 -1.203125 L 0.96875 0 L 0.171875 0 L 2.421875 -5.3125 L 2.46875 -5.3125 L 4.71875 0 L 3.78125 0 Z M 3.046875 -1.890625 L 2.40625 -3.5 L 1.75 -1.890625 Z M 3.046875 -1.890625 "/></g></g></g><g fill="#3b3f3f" fill-opacity="1"><g transform="translate(78.03685, 32.228285)"><g><path d="M 1.515625 -5.09375 L 1.515625 -0.78125 L 4.03125 -0.78125 L 4.03125 0 L 0.703125 0 L 0.703125 -5.09375 Z M 1.515625 -5.09375 "/></g></g></g><g fill="#3b3f3f" fill-opacity="1"><g transform="translate(85.246889, 32.228285)"><g><path d="M 4.765625 -5.09375 L 2.859375 -1.65625 L 2.859375 0 L 2.046875 0 L 2.046875 -1.65625 L 0.15625 -5.09375 L 1.15625 -5.09375 L 2.484375 -2.578125 L 3.765625 -5.09375 Z M 4.765625 -5.09375 "/></g></g></g><g fill="#3b3f3f" fill-opacity="1"><g transform="translate(92.97493, 32.228285)"><g><path d="M 3.75 -5.09375 L 3.75 -4.3125 L 2.421875 -4.3125 L 2.421875 0 L 1.609375 0 L 1.609375 -4.3125 L 0.34375 -4.3125 L 0.34375 -5.09375 Z M 3.75 -5.09375 "/></g></g></g><g fill="#3b3f3f" fill-opacity="1"><g transform="translate(99.855965, 32.228285)"><g><path d="M 1.515625 -5.09375 L 1.515625 0 L 0.703125 0 L 0.703125 -5.09375 Z M 1.515625 -5.09375 "/></g></g></g><g fill="#3b3f3f" fill-opacity="1"><g transform="translate(104.874989, 32.228285)"><g><path d="M 4.484375 -0.40625 C 4.328125 -0.289062 4.117188 -0.179688 3.859375 -0.078125 C 3.597656 0.015625 3.3125 0.0625 3 0.0625 C 2.46875 0.0625 2.003906 -0.0507812 1.609375 -0.28125 C 1.210938 -0.519531 0.910156 -0.832031 0.703125 -1.21875 C 0.492188 -1.613281 0.390625 -2.039062 0.390625 -2.5 C 0.390625 -3.007812 0.492188 -3.460938 0.703125 -3.859375 C 0.910156 -4.265625 1.203125 -4.582031 1.578125 -4.8125 C 1.960938 -5.039062 2.398438 -5.15625 2.890625 -5.15625 C 3.191406 -5.15625 3.46875 -5.113281 3.71875 -5.03125 C 3.976562 -4.945312 4.203125 -4.847656 4.390625 -4.734375 L 4.078125 -3.96875 C 3.691406 -4.238281 3.304688 -4.375 2.921875 -4.375 C 2.617188 -4.375 2.335938 -4.289062 2.078125 -4.125 C 1.816406 -3.96875 1.609375 -3.75 1.453125 -3.46875 C 1.304688 -3.1875 1.234375 -2.882812 1.234375 -2.5625 C 1.234375 -2.207031 1.300781 -1.890625 1.4375 -1.609375 C 1.582031 -1.335938 1.785156 -1.125 2.046875 -0.96875 C 2.316406 -0.8125 2.625 -0.734375 2.96875 -0.734375 C 3.21875 -0.734375 3.441406 -0.769531 3.640625 -0.84375 C 3.835938 -0.914062 4.003906 -1.007812 4.140625 -1.125 Z M 4.484375 -0.40625 "/></g></g></g><g fill="#3b3f3f" fill-opacity="1"><g transform="translate(112.540031, 32.228285)"><g><path d="M 3.375 -4.0625 C 2.9375 -4.289062 2.546875 -4.40625 2.203125 -4.40625 C 1.953125 -4.40625 1.753906 -4.347656 1.609375 -4.234375 C 1.460938 -4.117188 1.390625 -3.960938 1.390625 -3.765625 C 1.390625 -3.578125 1.476562 -3.414062 1.65625 -3.28125 C 1.84375 -3.15625 2.101562 -3.03125 2.4375 -2.90625 C 2.6875 -2.820312 2.898438 -2.722656 3.078125 -2.609375 C 3.265625 -2.492188 3.414062 -2.335938 3.53125 -2.140625 C 3.644531 -1.941406 3.703125 -1.695312 3.703125 -1.40625 C 3.703125 -1.132812 3.632812 -0.890625 3.5 -0.671875 C 3.363281 -0.453125 3.164062 -0.273438 2.90625 -0.140625 C 2.65625 -0.00390625 2.351562 0.0625 2 0.0625 C 1.695312 0.0625 1.394531 0.015625 1.09375 -0.078125 C 0.789062 -0.179688 0.523438 -0.316406 0.296875 -0.484375 L 0.65625 -1.125 C 0.832031 -0.988281 1.035156 -0.878906 1.265625 -0.796875 C 1.503906 -0.710938 1.722656 -0.671875 1.921875 -0.671875 C 2.171875 -0.671875 2.390625 -0.726562 2.578125 -0.84375 C 2.765625 -0.957031 2.859375 -1.140625 2.859375 -1.390625 C 2.859375 -1.585938 2.78125 -1.75 2.625 -1.875 C 2.46875 -2.007812 2.25 -2.128906 1.96875 -2.234375 C 1.675781 -2.347656 1.429688 -2.457031 1.234375 -2.5625 C 1.046875 -2.664062 0.882812 -2.8125 0.75 -3 C 0.613281 -3.1875 0.546875 -3.421875 0.546875 -3.703125 C 0.546875 -4.117188 0.6875 -4.453125 0.96875 -4.703125 C 1.25 -4.960938 1.625 -5.101562 2.09375 -5.125 C 2.425781 -5.125 2.71875 -5.082031 2.96875 -5 C 3.226562 -4.925781 3.46875 -4.820312 3.6875 -4.6875 Z M 3.375 -4.0625 "/></g></g></g></svg>