<svg xmlns="http://www.w3.org/2000/svg" xmlns:xlink="http://www.w3.org/1999/xlink" width="160" zoomAndPan="magnify" viewBox="0 0 120 44.999999" height="60" preserveAspectRatio="xMidYMid meet" version="1.0"><defs><g/><clipPath id="dfe769b35c"><path d="M 2.324219 1 L 46.574219 1 L 46.574219 45 L 2.324219 45 Z M 2.324219 1 " clip-rule="nonzero"/></clipPath></defs><rect x="-12" width="144" fill="#ffffff" y="-4.5" height="53.999999" fill-opacity="1"/><rect x="-12" width="144" fill="#000000" y="-4.5" height="53.999999" fill-opacity="1"/><g clip-path="url(#dfe769b35c)"><path fill="#ffffff" d="M 46.308594 21.359375 C 45.863281 16.25 43.644531 11.285156 40.011719 7.640625 C 39.941406 7.574219 39.863281 7.492188 39.792969 7.425781 C 34.34375 2.140625 26.003906 0.0273438 18.6875 2.078125 C 11.371094 4.132812 5.355469 10.269531 3.453125 17.621094 C 2.324219 21.953125 2.65625 26.617188 4.21875 30.789062 C 5.828125 35.101562 8.742188 38.761719 12.585938 41.292969 C 14.390625 42.492188 16.402344 43.390625 18.496094 43.949219 C 18.582031 41.941406 18.59375 39.886719 17.929688 37.992188 C 17.117188 35.714844 15.449219 33.90625 14.035156 31.996094 C 12.574219 30.03125 11.449219 27.8125 10.792969 25.445312 C 10.132812 23.054688 9.972656 20.503906 10.507812 18.066406 C 11.222656 14.8125 13.117188 11.78125 15.972656 10 C 18.445312 8.453125 21.429688 7.859375 24.3125 7.914062 C 27.820312 7.984375 31.410156 9.058594 33.996094 11.433594 C 36.578125 13.808594 37.976562 17.605469 36.972656 20.976562 C 36.78125 21.613281 36.511719 22.285156 36.683594 22.929688 C 36.796875 23.34375 37.078125 23.683594 37.355469 24.015625 C 38.160156 24.964844 38.964844 25.917969 39.765625 26.871094 C 40.019531 27.167969 40.289062 27.515625 40.230469 27.910156 C 40.132812 28.570312 39.234375 28.738281 38.796875 29.253906 C 38.054688 30.136719 38.964844 31.507812 38.640625 32.613281 C 38.542969 32.9375 38.351562 33.226562 38.246094 33.539062 C 37.871094 34.65625 38.640625 36.011719 38.027344 37.015625 C 37.558594 37.777344 36.519531 37.933594 35.628906 37.835938 C 34.738281 37.730469 33.839844 37.453125 32.964844 37.652344 C 31.742188 37.933594 30.886719 39.101562 30.605469 40.324219 C 30.328125 41.546875 30.511719 42.824219 30.703125 44.0625 C 37.996094 41.933594 43.957031 35.730469 45.78125 28.355469 C 46.351562 26.074219 46.515625 23.707031 46.308594 21.359375 Z M 46.308594 21.359375 " fill-opacity="1" fill-rule="nonzero"/></g><path fill="#ffffff" d="M 31.261719 21.980469 C 31.394531 22.390625 31.769531 22.6875 32.214844 22.6875 C 32.765625 22.6875 33.21875 22.242188 33.21875 21.683594 C 33.21875 21.445312 33.128906 21.238281 33 21.0625 L 33.941406 18.757812 C 34.511719 18.589844 34.929688 18.078125 34.929688 17.457031 C 34.929688 16.707031 34.316406 16.101562 33.574219 16.101562 C 33.523438 16.101562 33.480469 16.101562 33.4375 16.113281 L 30.632812 13.066406 C 30.675781 12.925781 30.703125 12.785156 30.703125 12.628906 C 30.703125 11.878906 30.09375 11.273438 29.351562 11.273438 C 28.9375 11.273438 28.5625 11.457031 28.320312 11.753906 L 23.882812 10.507812 C 23.742188 9.914062 23.203125 9.46875 22.566406 9.46875 C 21.832031 9.46875 21.238281 10.042969 21.210938 10.777344 L 16.480469 12.734375 C 16.296875 12.53125 16.035156 12.402344 15.738281 12.402344 C 15.1875 12.402344 14.734375 12.847656 14.734375 13.40625 C 14.734375 13.675781 14.835938 13.921875 15.011719 14.105469 L 13.203125 17.089844 C 13.011719 16.984375 12.785156 16.925781 12.550781 16.925781 C 11.800781 16.925781 11.195312 17.535156 11.195312 18.277344 C 11.195312 19.027344 11.808594 19.628906 12.550781 19.628906 C 12.65625 19.628906 12.75 19.621094 12.847656 19.597656 L 14.445312 23.226562 C 14.140625 23.472656 13.9375 23.855469 13.9375 24.285156 C 13.9375 25.035156 14.550781 25.636719 15.292969 25.636719 C 15.386719 25.636719 15.484375 25.628906 15.570312 25.613281 L 17.210938 28.835938 C 16.96875 29.078125 16.820312 29.417969 16.820312 29.792969 C 16.820312 30.546875 17.429688 31.148438 18.171875 31.148438 C 18.285156 31.148438 18.390625 31.128906 18.488281 31.113281 L 20.582031 34.441406 C 20.226562 34.683594 20 35.09375 20 35.558594 C 20 36.308594 20.609375 36.910156 21.351562 36.910156 C 21.378906 36.910156 21.402344 36.910156 21.429688 36.910156 L 21.929688 40.578125 L 21.839844 44.769531 C 21.839844 44.882812 21.929688 44.980469 22.050781 44.988281 C 22.164062 44.988281 22.257812 44.902344 22.269531 44.777344 L 22.355469 40.550781 L 21.847656 36.816406 C 22.355469 36.613281 22.714844 36.125 22.714844 35.558594 C 22.714844 34.804688 22.101562 34.203125 21.359375 34.203125 C 21.230469 34.203125 21.097656 34.222656 20.976562 34.257812 L 18.890625 30.945312 C 19.265625 30.71875 19.519531 30.308594 19.535156 29.839844 L 21.449219 29.550781 C 21.632812 29.792969 21.917969 29.953125 22.242188 29.953125 C 22.792969 29.953125 23.246094 29.507812 23.246094 28.949219 C 23.246094 28.503906 22.957031 28.136719 22.554688 27.996094 L 22.199219 25.097656 C 22.898438 25.035156 23.4375 24.460938 23.4375 23.742188 C 23.4375 23.648438 23.429688 23.558594 23.414062 23.472656 L 25.464844 22.023438 C 25.65625 22.121094 25.867188 22.179688 26.09375 22.179688 C 26.503906 22.179688 26.871094 21.996094 27.113281 21.710938 Z M 13.902344 18.085938 C 13.878906 17.882812 13.816406 17.699219 13.710938 17.535156 L 21.535156 11.683594 C 21.632812 11.796875 21.734375 11.886719 21.867188 11.964844 L 19.746094 16.511719 C 19.210938 16.558594 18.777344 16.90625 18.59375 17.386719 Z M 22.25 12.128906 C 22.355469 12.15625 22.460938 12.164062 22.566406 12.164062 C 22.878906 12.164062 23.167969 12.058594 23.402344 11.878906 L 26.085938 15.273438 C 25.910156 15.5 25.804688 15.789062 25.804688 16.101562 C 25.804688 16.226562 25.820312 16.347656 25.855469 16.46875 L 21.160156 17.472656 C 21.019531 17.019531 20.652344 16.679688 20.191406 16.558594 Z M 21.210938 17.882812 L 26.03125 16.855469 C 26.199219 17.105469 26.449219 17.289062 26.738281 17.386719 L 26.265625 19.464844 C 26.214844 19.457031 26.164062 19.457031 26.101562 19.457031 C 25.542969 19.457031 25.0625 19.789062 24.863281 20.269531 L 21.117188 18.355469 C 21.175781 18.214844 21.210938 18.050781 21.210938 17.882812 Z M 27.445312 20.625 L 32.535156 18.328125 C 32.765625 18.601562 33.09375 18.785156 33.472656 18.808594 L 32.660156 20.792969 C 32.527344 20.722656 32.378906 20.6875 32.214844 20.6875 C 31.707031 20.6875 31.289062 21.070312 31.226562 21.558594 L 27.367188 21.296875 C 27.421875 21.148438 27.453125 20.984375 27.453125 20.816406 C 27.464844 20.75 27.453125 20.6875 27.445312 20.625 Z M 32.980469 16.242188 C 32.527344 16.460938 32.222656 16.925781 32.222656 17.457031 C 32.222656 17.640625 32.257812 17.804688 32.320312 17.964844 L 27.324219 20.214844 C 27.183594 19.9375 26.957031 19.710938 26.679688 19.578125 L 27.15625 17.449219 C 27.910156 17.449219 28.511719 16.835938 28.511719 16.09375 C 28.511719 15.769531 28.398438 15.472656 28.214844 15.246094 L 29.019531 13.9375 C 29.121094 13.964844 29.234375 13.980469 29.351562 13.980469 C 29.785156 13.980469 30.171875 13.773438 30.421875 13.457031 Z M 28.625 13.773438 L 27.890625 14.960938 C 27.683594 14.820312 27.429688 14.742188 27.15625 14.742188 C 26.871094 14.742188 26.609375 14.828125 26.390625 14.976562 L 23.691406 11.554688 C 23.8125 11.371094 23.890625 11.160156 23.910156 10.933594 L 28.09375 12.113281 C 28.03125 12.269531 27.996094 12.4375 27.996094 12.621094 C 27.996094 13.109375 28.25 13.527344 28.625 13.773438 Z M 21.265625 11.195312 C 21.28125 11.238281 21.289062 11.285156 21.308594 11.328125 L 13.753906 16.976562 L 15.371094 14.3125 C 15.484375 14.355469 15.605469 14.382812 15.738281 14.382812 C 16.285156 14.382812 16.742188 13.9375 16.742188 13.378906 C 16.742188 13.273438 16.722656 13.167969 16.6875 13.074219 Z M 13.25 19.421875 C 13.570312 19.230469 13.816406 18.90625 13.886719 18.523438 L 18.503906 17.832031 C 18.503906 17.839844 18.503906 17.859375 18.503906 17.867188 C 18.503906 18.179688 18.617188 18.476562 18.800781 18.707031 L 15.808594 23 C 15.648438 22.941406 15.484375 22.90625 15.308594 22.90625 C 15.144531 22.90625 14.976562 22.941406 14.828125 22.992188 Z M 19.484375 29.402344 C 19.316406 28.835938 18.800781 28.414062 18.183594 28.414062 C 17.964844 28.414062 17.753906 28.46875 17.570312 28.5625 L 15.980469 25.4375 C 16.390625 25.203125 16.664062 24.765625 16.664062 24.257812 C 16.664062 23.839844 16.46875 23.464844 16.171875 23.210938 L 19.117188 18.984375 C 19.246094 19.070312 19.394531 19.132812 19.554688 19.175781 L 21.378906 22.582031 C 21.003906 22.828125 20.75 23.246094 20.75 23.726562 C 20.75 24.363281 21.195312 24.90625 21.789062 25.042969 L 22.136719 27.925781 C 21.640625 27.988281 21.246094 28.40625 21.246094 28.921875 C 21.246094 28.992188 21.253906 29.0625 21.273438 29.132812 Z M 22.09375 22.371094 C 21.972656 22.371094 21.859375 22.390625 21.753906 22.417969 L 20.03125 19.203125 C 20.382812 19.160156 20.6875 18.976562 20.90625 18.722656 L 24.757812 20.6875 C 24.757812 20.730469 24.75 20.765625 24.75 20.808594 C 24.75 21.167969 24.886719 21.5 25.125 21.742188 L 23.273438 23.054688 C 23.035156 22.652344 22.589844 22.371094 22.09375 22.371094 Z M 22.09375 22.371094 " fill-opacity="1" fill-rule="nonzero"/><g fill="#ffffff" fill-opacity="1"><g transform="translate(54.439023, 23.993143)"><g><path d="M 7.796875 -2.453125 L 3.65625 -2.453125 L 2.640625 0 L 0.203125 0 L 5.84375 -13 L 5.984375 -13 L 11.625 0 L 8.765625 0 Z M 6.984375 -4.515625 L 5.78125 -7.5625 L 4.515625 -4.515625 Z M 6.984375 -4.515625 "/></g></g></g><g fill="#ffffff" fill-opacity="1"><g transform="translate(70.430569, 23.993143)"><g><path d="M 4.046875 -7.421875 L 4.421875 -7.90625 L 8.5 -12.515625 L 11.703125 -12.515625 L 6.53125 -6.90625 L 11.71875 0 L 8.578125 0 L 4.71875 -5.34375 L 4.109375 -4.71875 L 4.109375 0 L 1.609375 0 L 1.609375 -12.515625 L 4.109375 -12.515625 L 4.109375 -8.0625 Z M 4.046875 -7.421875 "/></g></g></g><g fill="#ffffff" fill-opacity="1"><g transform="translate(86.558049, 23.993143)"><g><path d="M 4.078125 -12.515625 L 4.078125 0 L 1.609375 0 L 1.609375 -12.515625 Z M 4.078125 -12.515625 "/></g></g></g><g fill="#ffffff" fill-opacity="1"><g transform="translate(96.415425, 23.993143)"><g><path d="M 4.078125 -12.515625 L 4.078125 -2.375 L 9.96875 -2.375 L 9.96875 0 L 1.609375 0 L 1.609375 -12.515625 Z M 4.078125 -12.515625 "/></g></g></g><g fill="#ffffff" fill-opacity="1"><g transform="translate(111.472402, 23.993143)"><g><path d="M 4.078125 -12.515625 L 4.078125 0 L 1.609375 0 L 1.609375 -12.515625 Z M 4.078125 -12.515625 "/></g></g></g><g fill="#ffffff" fill-opacity="1"><g transform="translate(53.979191, 32.293153)"><g><path d="M 3.3125 -1.203125 L 1.46875 -1.203125 L 0.96875 0 L 0.171875 0 L 2.421875 -5.3125 L 2.46875 -5.3125 L 4.71875 0 L 3.78125 0 Z M 3.046875 -1.890625 L 2.40625 -3.5 L 1.75 -1.890625 Z M 3.046875 -1.890625 "/></g></g></g><g fill="#ffffff" fill-opacity="1"><g transform="translate(61.672255, 32.293153)"><g><path d="M 5.203125 -5.09375 L 5.203125 0.1875 L 5.1875 0.1875 L 1.5 -3.375 L 1.53125 0 L 0.703125 0 L 0.703125 -5.265625 L 0.734375 -5.265625 L 4.40625 -1.671875 L 4.390625 -5.09375 Z M 5.203125 -5.09375 "/></g></g></g><g fill="#ffffff" fill-opacity="1"><g transform="translate(70.380326, 32.293153)"><g><path d="M 3.3125 -1.203125 L 1.46875 -1.203125 L 0.96875 0 L 0.171875 0 L 2.421875 -5.3125 L 2.46875 -5.3125 L 4.71875 0 L 3.78125 0 Z M 3.046875 -1.890625 L 2.40625 -3.5 L 1.75 -1.890625 Z M 3.046875 -1.890625 "/></g></g></g><g fill="#ffffff" fill-opacity="1"><g transform="translate(78.073391, 32.293153)"><g><path d="M 1.515625 -5.09375 L 1.515625 -0.78125 L 4.03125 -0.78125 L 4.03125 0 L 0.703125 0 L 0.703125 -5.09375 Z M 1.515625 -5.09375 "/></g></g></g><g fill="#ffffff" fill-opacity="1"><g transform="translate(85.283451, 32.293153)"><g><path d="M 4.765625 -5.09375 L 2.859375 -1.65625 L 2.859375 0 L 2.046875 0 L 2.046875 -1.65625 L 0.15625 -5.09375 L 1.15625 -5.09375 L 2.484375 -2.578125 L 3.765625 -5.09375 Z M 4.765625 -5.09375 "/></g></g></g><g fill="#ffffff" fill-opacity="1"><g transform="translate(93.011513, 32.293153)"><g><path d="M 3.75 -5.09375 L 3.75 -4.3125 L 2.421875 -4.3125 L 2.421875 0 L 1.609375 0 L 1.609375 -4.3125 L 0.34375 -4.3125 L 0.34375 -5.09375 Z M 3.75 -5.09375 "/></g></g></g><g fill="#ffffff" fill-opacity="1"><g transform="translate(99.892568, 32.293153)"><g><path d="M 1.515625 -5.09375 L 1.515625 0 L 0.703125 0 L 0.703125 -5.09375 Z M 1.515625 -5.09375 "/></g></g></g><g fill="#ffffff" fill-opacity="1"><g transform="translate(104.911607, 32.293153)"><g><path d="M 4.484375 -0.40625 C 4.328125 -0.289062 4.117188 -0.179688 3.859375 -0.078125 C 3.597656 0.015625 3.3125 0.0625 3 0.0625 C 2.46875 0.0625 2.003906 -0.0507812 1.609375 -0.28125 C 1.210938 -0.519531 0.910156 -0.832031 0.703125 -1.21875 C 0.492188 -1.613281 0.390625 -2.039062 0.390625 -2.5 C 0.390625 -3.007812 0.492188 -3.460938 0.703125 -3.859375 C 0.910156 -4.265625 1.203125 -4.582031 1.578125 -4.8125 C 1.960938 -5.039062 2.398438 -5.15625 2.890625 -5.15625 C 3.191406 -5.15625 3.46875 -5.113281 3.71875 -5.03125 C 3.976562 -4.945312 4.203125 -4.847656 4.390625 -4.734375 L 4.078125 -3.96875 C 3.691406 -4.238281 3.304688 -4.375 2.921875 -4.375 C 2.617188 -4.375 2.335938 -4.289062 2.078125 -4.125 C 1.816406 -3.96875 1.609375 -3.75 1.453125 -3.46875 C 1.304688 -3.1875 1.234375 -2.882812 1.234375 -2.5625 C 1.234375 -2.207031 1.300781 -1.890625 1.4375 -1.609375 C 1.582031 -1.335938 1.785156 -1.125 2.046875 -0.96875 C 2.316406 -0.8125 2.625 -0.734375 2.96875 -0.734375 C 3.21875 -0.734375 3.441406 -0.769531 3.640625 -0.84375 C 3.835938 -0.914062 4.003906 -1.007812 4.140625 -1.125 Z M 4.484375 -0.40625 "/></g></g></g><g fill="#ffffff" fill-opacity="1"><g transform="translate(112.57667, 32.293153)"><g><path d="M 3.375 -4.0625 C 2.9375 -4.289062 2.546875 -4.40625 2.203125 -4.40625 C 1.953125 -4.40625 1.753906 -4.347656 1.609375 -4.234375 C 1.460938 -4.117188 1.390625 -3.960938 1.390625 -3.765625 C 1.390625 -3.578125 1.476562 -3.414062 1.65625 -3.28125 C 1.84375 -3.15625 2.101562 -3.03125 2.4375 -2.90625 C 2.6875 -2.820312 2.898438 -2.722656 3.078125 -2.609375 C 3.265625 -2.492188 3.414062 -2.335938 3.53125 -2.140625 C 3.644531 -1.941406 3.703125 -1.695312 3.703125 -1.40625 C 3.703125 -1.132812 3.632812 -0.890625 3.5 -0.671875 C 3.363281 -0.453125 3.164062 -0.273438 2.90625 -0.140625 C 2.65625 -0.00390625 2.351562 0.0625 2 0.0625 C 1.695312 0.0625 1.394531 0.015625 1.09375 -0.078125 C 0.789062 -0.179688 0.523438 -0.316406 0.296875 -0.484375 L 0.65625 -1.125 C 0.832031 -0.988281 1.035156 -0.878906 1.265625 -0.796875 C 1.503906 -0.710938 1.722656 -0.671875 1.921875 -0.671875 C 2.171875 -0.671875 2.390625 -0.726562 2.578125 -0.84375 C 2.765625 -0.957031 2.859375 -1.140625 2.859375 -1.390625 C 2.859375 -1.585938 2.78125 -1.75 2.625 -1.875 C 2.46875 -2.007812 2.25 -2.128906 1.96875 -2.234375 C 1.675781 -2.347656 1.429688 -2.457031 1.234375 -2.5625 C 1.046875 -2.664062 0.882812 -2.8125 0.75 -3 C 0.613281 -3.1875 0.546875 -3.421875 0.546875 -3.703125 C 0.546875 -4.117188 0.6875 -4.453125 0.96875 -4.703125 C 1.25 -4.960938 1.625 -5.101562 2.09375 -5.125 C 2.425781 -5.125 2.71875 -5.082031 2.96875 -5 C 3.226562 -4.925781 3.46875 -4.820312 3.6875 -4.6875 Z M 3.375 -4.0625 "/></g></g></g></svg>