<svg xmlns="http://www.w3.org/2000/svg" xmlns:xlink="http://www.w3.org/1999/xlink" width="60" zoomAndPan="magnify" viewBox="0 0 45 44.999999" height="60" preserveAspectRatio="xMidYMid meet" version="1.0"><defs><clipPath id="3ebe7ebb4c"><path d="M 0.265625 1 L 44.515625 1 L 44.515625 45 L 0.265625 45 Z M 0.265625 1 " clip-rule="nonzero"/></clipPath></defs><g clip-path="url(#3ebe7ebb4c)"><path fill="#3b3f3f" d="M 44.304688 21.40625 C 43.859375 16.292969 41.636719 11.324219 38 7.679688 C 37.929688 7.609375 37.851562 7.53125 37.78125 7.460938 C 32.328125 2.175781 23.976562 0.0625 16.648438 2.113281 C 9.324219 4.167969 3.296875 10.308594 1.390625 17.664062 C 0.265625 22 0.597656 26.664062 2.160156 30.839844 C 3.769531 35.15625 6.691406 38.816406 10.539062 41.347656 C 12.347656 42.546875 14.359375 43.445312 16.457031 44.003906 C 16.542969 41.996094 16.554688 39.941406 15.890625 38.046875 C 15.074219 35.765625 13.40625 33.957031 11.988281 32.046875 C 10.53125 30.078125 9.402344 27.859375 8.746094 25.492188 C 8.082031 23.097656 7.921875 20.546875 8.457031 18.109375 C 9.175781 14.851562 11.070312 11.820312 13.929688 10.039062 C 16.40625 8.492188 19.394531 7.898438 22.28125 7.949219 C 25.796875 8.019531 29.390625 9.09375 31.976562 11.472656 C 34.566406 13.847656 35.964844 17.648438 34.957031 21.019531 C 34.765625 21.65625 34.496094 22.332031 34.667969 22.976562 C 34.785156 23.386719 35.0625 23.726562 35.34375 24.058594 C 36.148438 25.011719 36.953125 25.964844 37.757812 26.917969 C 38.007812 27.214844 38.28125 27.5625 38.21875 27.957031 C 38.125 28.621094 37.222656 28.785156 36.785156 29.300781 C 36.042969 30.183594 36.953125 31.554688 36.628906 32.664062 C 36.53125 32.988281 36.339844 33.277344 36.234375 33.589844 C 35.859375 34.710938 36.628906 36.0625 36.015625 37.070312 C 35.542969 37.828125 34.503906 37.984375 33.613281 37.890625 C 32.71875 37.785156 31.820312 37.503906 30.945312 37.707031 C 29.722656 37.984375 28.863281 39.15625 28.585938 40.378906 C 28.304688 41.601562 28.488281 42.878906 28.679688 44.117188 C 35.980469 41.988281 41.953125 35.785156 43.78125 28.402344 C 44.347656 26.121094 44.515625 23.753906 44.304688 21.40625 Z M 44.304688 21.40625 " fill-opacity="1" fill-rule="nonzero"/></g><path fill="#3b3f3f" d="M 29.238281 22.023438 C 29.371094 22.433594 29.746094 22.734375 30.191406 22.734375 C 30.742188 22.734375 31.199219 22.285156 31.199219 21.726562 C 31.199219 21.492188 31.109375 21.28125 30.980469 21.109375 L 31.925781 18.800781 C 32.492188 18.636719 32.914062 18.121094 32.914062 17.5 C 32.914062 16.75 32.300781 16.144531 31.558594 16.144531 C 31.503906 16.144531 31.460938 16.144531 31.417969 16.152344 L 28.609375 13.105469 C 28.652344 12.964844 28.679688 12.824219 28.679688 12.667969 C 28.679688 11.917969 28.070312 11.3125 27.324219 11.3125 C 26.914062 11.3125 26.539062 11.496094 26.292969 11.792969 L 21.851562 10.546875 C 21.710938 9.953125 21.171875 9.507812 20.53125 9.507812 C 19.796875 9.507812 19.203125 10.082031 19.175781 10.816406 L 14.4375 12.773438 C 14.253906 12.574219 13.992188 12.441406 13.695312 12.441406 C 13.144531 12.441406 12.6875 12.886719 12.6875 13.445312 C 12.6875 13.714844 12.792969 13.960938 12.96875 14.144531 L 11.160156 17.132812 C 10.964844 17.027344 10.738281 16.964844 10.503906 16.964844 C 9.75 16.964844 9.148438 17.578125 9.148438 18.320312 C 9.148438 19.070312 9.761719 19.675781 10.503906 19.675781 C 10.609375 19.675781 10.703125 19.667969 10.800781 19.640625 L 12.398438 23.273438 C 12.09375 23.519531 11.894531 23.902344 11.894531 24.332031 C 11.894531 25.082031 12.503906 25.683594 13.25 25.683594 C 13.34375 25.683594 13.441406 25.675781 13.527344 25.660156 L 15.171875 28.882812 C 14.925781 29.128906 14.777344 29.46875 14.777344 29.84375 C 14.777344 30.59375 15.390625 31.199219 16.132812 31.199219 C 16.246094 31.199219 16.351562 31.179688 16.449219 31.164062 L 18.546875 34.492188 C 18.1875 34.734375 17.960938 35.148438 17.960938 35.609375 C 17.960938 36.359375 18.574219 36.964844 19.316406 36.964844 C 19.34375 36.964844 19.367188 36.964844 19.394531 36.964844 L 19.894531 40.632812 L 19.804688 44.828125 C 19.804688 44.941406 19.894531 45.035156 20.015625 45.042969 C 20.128906 45.042969 20.226562 44.957031 20.234375 44.835938 L 20.320312 40.605469 L 19.816406 36.867188 C 20.320312 36.667969 20.679688 36.175781 20.679688 35.609375 C 20.679688 34.859375 20.066406 34.253906 19.324219 34.253906 C 19.195312 34.253906 19.0625 34.273438 18.941406 34.308594 L 16.851562 30.996094 C 17.226562 30.769531 17.480469 30.359375 17.496094 29.886719 L 19.414062 29.597656 C 19.597656 29.84375 19.882812 30 20.207031 30 C 20.757812 30 21.214844 29.554688 21.214844 28.996094 C 21.214844 28.550781 20.925781 28.183594 20.523438 28.042969 L 20.164062 25.144531 C 20.863281 25.082031 21.40625 24.507812 21.40625 23.789062 C 21.40625 23.695312 21.398438 23.605469 21.378906 23.519531 L 23.433594 22.070312 C 23.625 22.164062 23.835938 22.226562 24.0625 22.226562 C 24.476562 22.226562 24.84375 22.042969 25.085938 21.753906 Z M 11.859375 18.128906 C 11.832031 17.925781 11.769531 17.746094 11.664062 17.578125 L 19.5 11.726562 C 19.597656 11.839844 19.699219 11.925781 19.832031 12.003906 L 17.707031 16.554688 C 17.175781 16.601562 16.738281 16.949219 16.554688 17.429688 Z M 20.21875 12.171875 C 20.320312 12.195312 20.425781 12.207031 20.53125 12.207031 C 20.847656 12.207031 21.136719 12.101562 21.371094 11.917969 L 24.054688 15.316406 C 23.878906 15.542969 23.777344 15.832031 23.777344 16.144531 C 23.777344 16.269531 23.792969 16.390625 23.828125 16.511719 L 19.125 17.515625 C 18.984375 17.0625 18.617188 16.722656 18.152344 16.601562 Z M 19.175781 17.925781 L 24.003906 16.898438 C 24.167969 17.148438 24.421875 17.332031 24.710938 17.429688 L 24.238281 19.507812 C 24.1875 19.5 24.132812 19.5 24.074219 19.5 C 23.511719 19.5 23.03125 19.832031 22.832031 20.3125 L 19.082031 18.398438 C 19.140625 18.257812 19.175781 18.09375 19.175781 17.925781 Z M 25.417969 20.671875 L 30.515625 18.375 C 30.742188 18.644531 31.074219 18.828125 31.453125 18.855469 L 30.640625 20.835938 C 30.507812 20.765625 30.359375 20.730469 30.191406 20.730469 C 29.6875 20.730469 29.265625 21.117188 29.207031 21.605469 L 25.339844 21.34375 C 25.394531 21.195312 25.429688 21.027344 25.429688 20.863281 C 25.4375 20.792969 25.429688 20.730469 25.417969 20.671875 Z M 30.960938 16.285156 C 30.507812 16.503906 30.203125 16.964844 30.203125 17.5 C 30.203125 17.683594 30.238281 17.847656 30.296875 18.007812 L 25.296875 20.261719 C 25.15625 19.980469 24.929688 19.753906 24.648438 19.621094 L 25.128906 17.492188 C 25.882812 17.492188 26.484375 16.878906 26.484375 16.136719 C 26.484375 15.8125 26.371094 15.515625 26.1875 15.289062 L 26.992188 13.980469 C 27.097656 14.003906 27.210938 14.023438 27.324219 14.023438 C 27.761719 14.023438 28.148438 13.8125 28.402344 13.5 Z M 26.597656 13.8125 L 25.863281 15 C 25.65625 14.859375 25.402344 14.78125 25.128906 14.78125 C 24.84375 14.78125 24.578125 14.871094 24.359375 15.019531 L 21.660156 11.59375 C 21.78125 11.410156 21.859375 11.199219 21.878906 10.972656 L 26.066406 12.152344 C 26.003906 12.308594 25.96875 12.476562 25.96875 12.660156 C 25.96875 13.148438 26.222656 13.566406 26.597656 13.8125 Z M 19.230469 11.234375 C 19.246094 11.28125 19.253906 11.324219 19.273438 11.367188 L 11.710938 17.019531 L 13.328125 14.355469 C 13.441406 14.398438 13.5625 14.425781 13.695312 14.425781 C 14.246094 14.425781 14.699219 13.980469 14.699219 13.417969 C 14.699219 13.316406 14.683594 13.210938 14.648438 13.113281 Z M 11.203125 19.464844 C 11.527344 19.273438 11.769531 18.949219 11.839844 18.566406 L 16.464844 17.875 C 16.464844 17.882812 16.464844 17.902344 16.464844 17.910156 C 16.464844 18.226562 16.578125 18.523438 16.761719 18.75 L 13.765625 23.046875 C 13.605469 22.984375 13.441406 22.949219 13.265625 22.949219 C 13.101562 22.949219 12.933594 22.984375 12.785156 23.039062 Z M 17.445312 29.449219 C 17.277344 28.882812 16.761719 28.464844 16.140625 28.464844 C 15.925781 28.464844 15.714844 28.515625 15.53125 28.613281 L 13.9375 25.484375 C 14.351562 25.25 14.621094 24.8125 14.621094 24.304688 C 14.621094 23.886719 14.429688 23.511719 14.132812 23.257812 L 17.078125 19.027344 C 17.210938 19.117188 17.359375 19.175781 17.515625 19.21875 L 19.34375 22.628906 C 18.964844 22.871094 18.714844 23.292969 18.714844 23.773438 C 18.714844 24.410156 19.160156 24.953125 19.753906 25.089844 L 20.101562 27.972656 C 19.605469 28.035156 19.210938 28.453125 19.210938 28.96875 C 19.210938 29.039062 19.21875 29.109375 19.238281 29.179688 Z M 20.058594 22.417969 C 19.9375 22.417969 19.824219 22.433594 19.71875 22.460938 L 17.996094 19.246094 C 18.347656 19.203125 18.652344 19.019531 18.871094 18.765625 L 22.726562 20.730469 C 22.726562 20.777344 22.71875 20.8125 22.71875 20.855469 C 22.71875 21.210938 22.855469 21.542969 23.09375 21.789062 L 21.238281 23.097656 C 21.003906 22.699219 20.558594 22.417969 20.058594 22.417969 Z M 20.058594 22.417969 " fill-opacity="1" fill-rule="nonzero"/></svg>